<?xml version="1.0" encoding="UTF-8"?><svg id="a" xmlns="http://www.w3.org/2000/svg" xmlns:xlink="http://www.w3.org/1999/xlink" viewBox="0 0 1920 1080"><defs><style>.c{stroke-width:2.02px;}.c,.d{fill:none;stroke:#fff;stroke-linecap:round;stroke-linejoin:round;}.d{stroke-width:2.02px;}.e{fill:url(#b);}</style><linearGradient id="b" x1="-48.11" y1="540" x2="1698.54" y2="540" gradientTransform="matrix(1, 0, 0, 1, 0, 0)" gradientUnits="userSpaceOnUse"><stop offset="0" stop-color="#1a4e42"/><stop offset=".5" stop-color="#2a956b"/><stop offset="1" stop-color="#90c1ac"/></linearGradient></defs><rect class="e" width="1920" height="1080"/><g><rect class="d" x="40" y="727.45" width="191.47" height="191.47" rx="17.93" ry="17.93"/><rect class="d" x="284.08" y="727.45" width="191.47" height="191.47" rx="17.93" ry="17.93"/><rect class="d" x="528.15" y="727.45" width="191.47" height="191.47" rx="17.93" ry="17.93"/><rect class="d" x="772.23" y="727.45" width="191.47" height="191.47" rx="17.93" ry="17.93"/><rect class="d" x="1016.3" y="727.45" width="191.47" height="191.47" rx="17.93" ry="17.93"/><rect class="d" x="1260.38" y="727.45" width="191.47" height="191.47" rx="17.93" ry="17.93"/><rect class="d" x="1504.45" y="727.45" width="191.47" height="191.47" rx="17.93" ry="17.93"/><rect class="d" x="1748.53" y="727.45" width="191.47" height="191.47" rx="17.93" ry="17.93"/></g><g><rect class="c" x="-20" y="161.08" width="191.47" height="191.47" rx="17.93" ry="17.93"/><rect class="c" x="224.08" y="161.08" width="191.47" height="191.47" rx="17.93" ry="17.93"/><rect class="c" x="468.15" y="161.08" width="191.47" height="191.47" rx="17.93" ry="17.93"/><rect class="c" x="712.23" y="161.08" width="191.47" height="191.47" rx="17.93" ry="17.93"/><rect class="c" x="956.3" y="161.08" width="191.47" height="191.47" rx="17.93" ry="17.93"/><rect class="c" x="1200.38" y="161.08" width="191.47" height="191.47" rx="17.93" ry="17.93"/><rect class="c" x="1444.45" y="161.08" width="191.47" height="191.47" rx="17.93" ry="17.93"/><rect class="c" x="1688.53" y="161.08" width="191.47" height="191.47" rx="17.93" ry="17.93"/></g></svg>