<?xml version="1.0" encoding="UTF-8"?><svg id="a" xmlns="http://www.w3.org/2000/svg" viewBox="0 0 1920 1080"><defs><style>.b{fill:none;stroke:#fff;stroke-linecap:round;stroke-linejoin:round;stroke-width:1.61px;}</style></defs><g><g><path class="b" d="M797.07,841.28c-58.69-196.16,30.13-383.38,188.07-442.22"/><path class="b" d="M797.01,841.3c-70.55-193.18,6.43-389.46,162.99-463.63"/><path class="b" d="M796.94,841.31c-82.41-190.2-17.28-395.55,137.92-485.04"/><path class="b" d="M796.88,841.33c-94.27-187.21-40.98-401.63,112.84-506.45"/><path class="b" d="M796.81,841.34c-106.13-184.23-64.68-407.71,87.77-527.87"/><path class="b" d="M796.75,841.36c-117.99-181.25-88.39-413.8,62.69-549.28"/><path class="b" d="M796.68,841.38c-129.85-178.27-112.09-419.88,37.61-570.69"/><path class="b" d="M796.62,841.39c-141.72-175.29-135.79-425.96,12.54-592.1"/><path class="b" d="M796.55,841.41c-153.58-172.31-159.5-432.05-12.54-613.51"/><path class="b" d="M796.49,841.43c-165.44-169.33-183.2-438.13-37.61-634.92"/><path class="b" d="M796.42,841.44c-177.3-166.35-206.9-444.21-62.69-656.33"/><path class="b" d="M796.36,841.46c-189.16-163.37-230.61-450.3-87.77-677.74"/><path class="b" d="M796.29,841.48c-201.02-160.38-254.31-456.38-112.84-699.16"/><path class="b" d="M796.23,841.49c-212.88-157.4-278.01-462.47-137.92-720.57"/><path class="b" d="M796.16,841.51c-224.74-154.42-301.72-468.55-162.99-741.98"/><path class="b" d="M796.1,841.53c-236.61-151.44-325.42-474.63-188.07-763.39"/></g><g><path class="b" d="M608.03,1001.86c-137.35-288.76-48.53-611.95,188.07-763.39"/><path class="b" d="M633.17,980.47c-138.72-273.43-61.75-587.56,162.99-741.98"/><path class="b" d="M658.31,959.07c-140.1-258.1-74.96-563.16,137.92-720.57"/><path class="b" d="M683.45,937.68c-141.47-242.77-88.18-538.77,112.84-699.16"/><path class="b" d="M708.59,916.28c-142.84-227.45-101.39-514.38,87.77-677.74"/><path class="b" d="M733.73,894.89c-144.21-212.12-114.61-489.99,62.69-656.33"/><path class="b" d="M758.87,873.49c-145.59-196.79-127.82-465.59,37.61-634.92"/><path class="b" d="M784.01,852.1c-146.96-181.46-141.04-441.2,12.54-613.51"/><path class="b" d="M809.15,830.71c-148.33-166.14-154.25-416.81-12.54-592.1"/><path class="b" d="M834.3,809.31c-149.7-150.81-167.47-392.42-37.61-570.69"/><path class="b" d="M859.44,787.92c-151.08-135.48-180.68-368.03-62.69-549.28"/><path class="b" d="M884.58,766.52c-152.45-120.15-193.9-343.63-87.77-527.87"/><path class="b" d="M909.72,745.13c-153.82-104.83-207.11-319.24-112.84-506.45"/><path class="b" d="M934.86,723.73c-155.2-89.5-220.33-294.85-137.92-485.04"/><path class="b" d="M960,702.34c-156.57-74.17-233.54-270.46-162.99-463.63"/><path class="b" d="M985.14,680.94c-157.94-58.84-246.76-246.06-188.07-442.22"/></g></g><g><g><path class="b" d="M1122.93,238.72c58.69,196.16-30.13,383.38-188.07,442.22"/><path class="b" d="M1122.99,238.7c70.55,193.18-6.43,389.46-162.99,463.63"/><path class="b" d="M1123.06,238.69c82.41,190.2,17.28,395.55-137.92,485.04"/><path class="b" d="M1123.12,238.67c94.27,187.21,40.98,401.63-112.84,506.45"/><path class="b" d="M1123.19,238.66c106.13,184.23,64.68,407.71-87.77,527.87"/><path class="b" d="M1123.25,238.64c117.99,181.25,88.39,413.8-62.69,549.28"/><path class="b" d="M1123.32,238.62c129.85,178.27,112.09,419.88-37.61,570.69"/><path class="b" d="M1123.38,238.61c141.72,175.29,135.79,425.96-12.54,592.1"/><path class="b" d="M1123.45,238.59c153.58,172.31,159.5,432.05,12.54,613.51"/><path class="b" d="M1123.51,238.57c165.44,169.33,183.2,438.13,37.61,634.92"/><path class="b" d="M1123.58,238.56c177.3,166.35,206.9,444.21,62.69,656.33"/><path class="b" d="M1123.64,238.54c189.16,163.37,230.61,450.3,87.77,677.74"/><path class="b" d="M1123.71,238.52c201.02,160.38,254.31,456.38,112.84,699.16"/><path class="b" d="M1123.77,238.51c212.88,157.4,278.01,462.47,137.92,720.57"/><path class="b" d="M1123.84,238.49c224.74,154.42,301.72,468.55,162.99,741.98"/><path class="b" d="M1123.9,238.47c236.61,151.44,325.42,474.63,188.07,763.39"/></g><g><path class="b" d="M1311.97,78.14c137.35,288.76,48.53,611.95-188.07,763.39"/><path class="b" d="M1286.83,99.53c138.72,273.43,61.75,587.56-162.99,741.98"/><path class="b" d="M1261.69,120.93c140.1,258.1,74.96,563.16-137.92,720.57"/><path class="b" d="M1236.55,142.32c141.47,242.77,88.18,538.77-112.84,699.16"/><path class="b" d="M1211.41,163.72c142.84,227.45,101.39,514.38-87.77,677.74"/><path class="b" d="M1186.27,185.11c144.21,212.12,114.61,489.99-62.69,656.33"/><path class="b" d="M1161.13,206.51c145.59,196.79,127.82,465.59-37.61,634.92"/><path class="b" d="M1135.99,227.9c146.96,181.46,141.04,441.2-12.54,613.51"/><path class="b" d="M1110.85,249.29c148.33,166.14,154.25,416.81,12.54,592.1"/><path class="b" d="M1085.7,270.69c149.7,150.81,167.47,392.42,37.61,570.69"/><path class="b" d="M1060.56,292.08c151.08,135.48,180.68,368.03,62.69,549.28"/><path class="b" d="M1035.42,313.48c152.45,120.15,193.9,343.63,87.77,527.87"/><path class="b" d="M1010.28,334.87c153.82,104.83,207.11,319.24,112.84,506.45"/><path class="b" d="M985.14,356.27c155.2,89.5,220.33,294.85,137.92,485.04"/><path class="b" d="M960,377.66c156.57,74.17,233.54,270.46,162.99,463.63"/><path class="b" d="M934.86,399.06c157.94,58.84,246.76,246.06,188.07,442.22"/></g></g></svg>